<?xml version="1.0" standalone="no"?>
<!DOCTYPE svg PUBLIC "-//W3C//DTD SVG 20010904//EN"
 "http://www.w3.org/TR/2001/REC-SVG-20010904/DTD/svg10.dtd">
<svg version="1.0" xmlns="http://www.w3.org/2000/svg"
 width="500.000000pt" height="500.000000pt" viewBox="0 0 500.000000 500.000000"
 preserveAspectRatio="xMidYMid meet">
<metadata>
Created by potrace 1.14, written by Peter Selinger 2001-2017
</metadata>
<g transform="translate(0.000000,500.000000) scale(0.100000,-0.100000)"
fill="#000000" stroke="none">
<path d="M2196 3460 c-26 -5 -55 -12 -65 -15 -9 -4 -58 -18 -109 -31 -169 -42
-414 -144 -519 -215 -24 -16 -46 -29 -48 -29 -11 0 -135 -91 -219 -161 -148
-124 -269 -263 -374 -429 -166 -263 -253 -500 -297 -810 -2 -19 -8 -81 -11
-137 l-7 -103 946 0 c697 0 953 -3 972 -12 19 -8 31 -8 51 1 19 8 265 11 964
11 l938 0 -4 52 c-14 223 -12 211 -35 328 -81 417 -341 847 -666 1099 -298
232 -568 361 -888 425 -44 8 -93 18 -110 22 -46 10 -463 13 -519 4z"/>
</g>
</svg>
